<svg width="80" height="80" viewBox="0 0 80 80" fill="none" xmlns="http://www.w3.org/2000/svg">
<path d="M46.25 46.25V57.8463C46.9938 58.2788 47.5 59.0763 47.5 60C47.5 60.9225 46.9938 61.72 46.25 62.1537V72.5H58.75V46.25H46.25Z" fill="#FF6E40"/>
<path d="M36.25 53.75H13.75V41.25H36.25V53.75Z" fill="#FF6E40"/>
<path d="M47.1925 18.75C45.3275 18.75 43.7075 20.0137 43.2562 21.8237L43.1012 22.4437L41.5112 21.99L38.7025 12.1575L36.2987 12.845L38.68 21.1812L30.3437 18.8L29.6562 21.2037L39.4887 24.0125L39.9425 25.6025L39.3225 25.7575C37.5137 26.2075 36.25 27.8275 36.25 29.6925C36.25 31.93 38.07 33.75 40.3075 33.75C42.2062 33.75 43.75 32.205 43.75 30.3075C43.75 29.99 43.705 29.6725 43.6175 29.3612L42.32 24.82L46.8637 26.1187C47.1712 26.205 47.49 26.25 47.8075 26.25C49.7062 26.25 51.25 24.7062 51.25 22.8075C51.25 20.57 49.43 18.75 47.1925 18.75ZM40.3075 31.25C39.4487 31.25 38.75 30.5512 38.75 29.6925C38.75 28.9762 39.235 28.355 39.93 28.1812L40.63 28.0062L41.2125 30.0462C41.2375 30.1312 41.25 30.22 41.25 30.3075C41.25 30.8275 40.8275 31.25 40.3075 31.25ZM47.5487 23.7137L45.5062 23.13L45.6812 22.43C45.855 21.735 46.4762 21.25 47.1925 21.25C48.0512 21.25 48.75 21.9487 48.75 22.8075C48.75 23.4137 48.13 23.8787 47.5487 23.7137Z" fill="#EFE7E2"/>
<path d="M76.2501 28.75H75.4301L78.9401 17.0512L78.2814 16.525C65.9689 6.67375 50.5051 1.25 34.7389 1.25H21.2501V12.2563C9.73887 14.285 2.23012 18.705 1.85637 18.9287L0.963867 19.465L4.44637 28.75H3.75012C2.37137 28.75 1.25012 29.8713 1.25012 31.25V33.75C1.25012 35.1287 2.37137 36.25 3.75012 36.25V63.1887C2.22512 64.0712 1.25012 65.7038 1.25012 67.5C1.25012 68.28 1.45012 69.0312 1.79012 69.7162C1.45762 70.1413 1.25012 70.6687 1.25012 71.25V78.75H76.2501V68.75C77.6289 68.75 78.7501 67.6288 78.7501 66.25V48.75C78.7501 47.9263 78.3451 47.2 77.7289 46.745C78.3614 45.9075 78.7501 44.8775 78.7501 43.75C78.7501 41.9075 77.7376 40.3125 76.2501 39.445V36.25C77.6289 36.25 78.7501 35.1287 78.7501 33.75V31.25C78.7501 29.8713 77.6289 28.75 76.2501 28.75ZM23.7501 3.75H34.7389C49.6601 3.75 64.2989 8.7875 76.0589 17.955L72.8201 28.75H68.7501V20.5988L68.2176 20.225C68.0089 20.0788 63.0739 16.6788 53.8801 14.0912C51.0264 9.40125 45.8814 6.25 40.0001 6.25C35.3289 6.25 31.1239 8.2425 28.1564 11.4087C26.6376 11.5138 25.1689 11.67 23.7501 11.865V3.75ZM40.0001 36.25C32.4189 36.25 26.2501 30.0812 26.2501 22.5C26.2501 14.9187 32.4189 8.75 40.0001 8.75C47.5814 8.75 53.7501 14.9187 53.7501 22.5C53.7501 30.0812 47.5814 36.25 40.0001 36.25ZM12.1514 28.75L10.1876 22.86C11.0351 22.5425 11.9551 22.22 12.9364 21.9012L14.6489 28.75H12.1514ZM17.2264 28.75L15.3314 21.1725C16.1389 20.9438 16.9889 20.7262 17.8614 20.5163L19.6926 28.75H17.2264ZM22.2526 28.75L20.3026 19.9738C21.5089 19.7325 22.7651 19.5187 24.0639 19.3387C23.8614 20.3612 23.7501 21.4175 23.7501 22.5C23.7501 24.7138 24.1989 26.825 25.0039 28.75H22.2526ZM66.2501 24.0325C64.2751 22.9338 60.8226 21.2513 55.9951 19.7238C55.8401 18.8313 55.6126 17.965 55.3189 17.1287C61.1901 18.9975 64.9301 21.1175 66.2501 21.9325V24.0325ZM56.2464 22.4338C56.2476 22.4338 56.2489 22.435 56.2501 22.435V22.5V28.75H54.9964C55.8014 26.825 56.2501 24.7138 56.2501 22.5C56.2501 22.4775 56.2464 22.4563 56.2464 22.4338ZM58.7501 23.3313C59.6601 23.6813 60.4901 24.0263 61.2501 24.3612V28.75H58.7501V23.3313ZM63.7501 25.5425C64.9164 26.1362 65.7551 26.6262 66.2501 26.9325V28.75H63.7501V25.5425ZM26.1214 14.0912C25.6151 14.9237 25.1826 15.8013 24.8301 16.7225C15.5964 17.8412 8.35637 20.7362 4.74762 22.4338L4.05012 20.5737C6.70887 19.1787 14.9976 15.2638 26.1214 14.0912ZM5.62887 24.7837C6.25387 24.4862 6.99637 24.15 7.86012 23.785L9.51512 28.75H7.11637L5.62887 24.7837ZM3.75012 31.25H26.3289C26.9051 32.1475 27.5651 32.985 28.3014 33.75H3.75012V31.25ZM5.43387 65.1538L6.33137 64.8413L6.27012 63.8925L6.25012 63.75C6.25012 62.3713 7.37137 61.25 8.75012 61.25C9.80262 61.25 10.7464 61.9275 11.0964 62.9338L11.4089 63.8312L12.3576 63.77L12.5001 63.75C13.8789 63.75 15.0001 64.8713 15.0001 66.25C15.0001 67.6288 13.8789 68.75 12.5001 68.75H4.09137C3.87262 68.3725 3.75012 67.9437 3.75012 67.5C3.75012 66.4475 4.42762 65.5038 5.43387 65.1538ZM32.0664 65.1538C33.0726 65.5038 33.7501 66.4475 33.7501 67.5C33.7501 67.9437 33.6289 68.3725 33.4089 68.75H25.0001C23.6214 68.75 22.5001 67.6288 22.5001 66.25C22.5001 64.8713 23.6214 63.75 24.9564 63.75L26.0901 63.8312L26.4026 62.9338C26.7539 61.9275 27.6976 61.25 28.7501 61.25C30.1289 61.25 31.2501 62.3713 31.2501 63.7062L31.1689 64.84L32.0664 65.1538ZM23.7351 61.4288C21.5914 61.9925 20.0001 63.9325 20.0001 66.25C20.0001 67.165 20.2651 68.0113 20.6951 68.75H16.8039C17.2351 68.0113 17.5001 67.165 17.5001 66.25C17.5001 63.69 15.5664 61.5737 13.0826 61.2838C12.8276 60.8338 12.5014 60.4388 12.1301 60.0938C12.8339 59.2588 13.8789 58.75 15.0001 58.75C15.9376 58.75 16.8401 59.11 17.5426 59.7625L18.5039 60.6562L19.3489 59.6525C19.8326 59.0788 20.5251 58.75 21.2501 58.75C22.6289 58.75 23.7501 59.8713 23.7501 61.25C23.7501 61.31 23.7389 61.3688 23.7351 61.4288ZM33.7501 76.25H3.75012V71.25H33.7501V76.25ZM36.2501 73.75H66.2501V76.25H36.2501V73.75ZM61.2501 71.25H53.7501V68.75H58.7501V66.25H53.7501V63.75H58.7501V61.25H53.7501V58.75H58.7501V56.25H53.7501V53.75H58.7501V51.25H53.7501V46.25H51.2501V51.25H46.2501V53.75H51.2501V56.25H46.2501V56.48C45.8576 56.34 45.4401 56.25 45.0001 56.25C44.5601 56.25 44.1426 56.34 43.7501 56.48V43.75H61.2501V71.25ZM45.0001 61.25C44.3114 61.25 43.7501 60.6888 43.7501 60C43.7501 59.3112 44.3114 58.75 45.0001 58.75C45.6889 58.75 46.2501 59.3112 46.2501 60C46.2501 60.6888 45.6889 61.25 45.0001 61.25ZM48.5201 58.75H51.2501V61.25H48.5201C48.6601 60.8575 48.7501 60.44 48.7501 60C48.7501 59.56 48.6601 59.1425 48.5201 58.75ZM43.7501 63.52C44.1426 63.66 44.5601 63.75 45.0001 63.75C45.4401 63.75 45.8576 63.66 46.2501 63.52V63.75H51.2501V66.25H46.2501V68.75H51.2501V71.25H43.7501V63.52ZM71.2501 66.25V63.75H76.2514V66.25H71.2501ZM71.2501 43.75C71.2501 42.3713 72.3714 41.25 73.7501 41.25C75.1289 41.25 76.2501 42.3713 76.2501 43.75C76.2501 45.1287 75.1289 46.25 73.7501 46.25C72.3714 46.25 71.2501 45.1287 71.2501 43.75ZM76.2501 48.75V51.25H71.2501V48.75H76.2501ZM76.2514 60.165L71.2501 56.8312V54.8363L76.2514 58.17V60.165ZM74.1289 53.75H76.2501V55.165L74.1289 53.75ZM73.3714 61.25H71.2501V59.835L73.3714 61.25ZM73.7501 38.75C70.9926 38.75 68.7501 40.9925 68.7501 43.75C68.7501 44.8775 69.1389 45.9075 69.7714 46.745C69.1551 47.2 68.7501 47.9263 68.7501 48.75V66.25C68.7501 67.6288 69.8714 68.75 71.2501 68.75H73.7501V76.25H68.7501V73.75C68.7501 72.3712 67.6289 71.25 66.2501 71.25H63.7501V41.25H41.2501V71.25H36.2501C36.2501 70.6687 36.0426 70.1413 35.7101 69.7162C36.0501 69.0312 36.2501 68.28 36.2501 67.5C36.2501 65.69 35.2614 64.0438 33.7164 63.1675C33.4264 60.6838 31.3101 58.75 28.7501 58.75C27.7289 58.75 26.7651 59.0737 25.9564 59.6263C25.2776 57.6688 23.4351 56.25 21.2501 56.25C20.1876 56.25 19.1664 56.5938 18.3176 57.2162C17.3264 56.5875 16.1814 56.25 15.0001 56.25C12.9576 56.25 11.0689 57.265 9.91012 58.8963C9.53387 58.805 9.14762 58.75 8.75012 58.75C7.83762 58.75 6.98762 59.0038 6.25012 59.4325V36.25H31.3789C33.8814 37.825 36.8314 38.75 40.0001 38.75C43.1689 38.75 46.1189 37.825 48.6214 36.25H73.7501V38.75ZM76.2501 33.75H51.6989C52.4351 32.985 53.0951 32.1475 53.6714 31.25H76.2501V33.75Z" fill="#EFE7E2"/>
<path d="M23.75 41.25H26.25V53.75H23.75V41.25Z" fill="#EFE7E2"/>
</svg>
