<svg width="80" height="80" viewBox="0 0 80 80" fill="none" xmlns="http://www.w3.org/2000/svg">
<path d="M69.6377 52.8625C67.4502 50.6875 66.2502 47.7875 66.2502 44.7V22.8625C66.2502 10.9375 56.5627 1.25 44.6377 1.25C43.0877 1.25 41.5252 1.425 40.0002 1.75C38.4752 1.425 36.9127 1.25 35.3627 1.25C23.4377 1.25 13.7502 10.9375 13.7502 22.8625V44.7C13.7502 47.7875 12.5502 50.6875 10.3627 52.8625L9.1377 54.0875L10.6877 54.8625C15.7752 57.4125 21.4627 58.75 27.1377 58.75H30.0002V55.2812H30.0389C25.3889 52.615 22.5002 47.6738 22.5002 42.2875V34.7875C22.5002 34.625 22.5127 34.475 22.5502 34.325L22.5377 34.35C21.0252 33.5 20.0002 31.8625 20.0002 30C20.0002 27.2375 22.2377 25 25.0002 25V24.925C25.0002 21.1375 27.1377 17.675 30.5252 15.9875L32.5002 15C34.1127 18.225 36.8502 20.7375 40.1877 22.075L41.2502 22.5L42.5002 15L46.9627 15.7375C48.9377 16.075 50.7627 17.0125 52.1752 18.425C53.9877 20.2375 55.0002 22.6875 55.0002 25.2375V25C57.7627 25 60.0002 27.2375 60.0002 30C60.0002 31.8625 58.9752 33.5 57.4627 34.35L57.4502 34.325C57.4877 34.475 57.5002 34.625 57.5002 34.7875V42.2875C57.5002 47.6738 54.6115 52.615 49.9614 55.2812H50.0002V58.75H52.8627C58.5377 58.75 64.2252 57.4125 69.3127 54.8625L70.8627 54.0875L69.6377 52.8625Z" fill="#FF6E40"/>
<path d="M42.5003 39.7049C42.0241 40.6574 41.0666 41.2499 40.0003 41.2499C38.9341 41.2499 37.9766 40.6574 37.5003 39.7049L37.3691 39.4412L35.1328 40.5599L35.2641 40.8237C36.1666 42.6287 37.9816 43.7499 40.0003 43.7499C42.0191 43.7499 43.8341 42.6287 44.7366 40.8224L44.8678 40.5587L42.6316 39.4399L42.5003 39.7049Z" fill="#EFE7E2"/>
<path d="M66.655 63.0075L51.25 60.2075V55.9813C55.9038 53.0088 58.75 47.8688 58.75 42.29V34.9975C60.3088 33.825 61.25 31.975 61.25 30C61.25 26.9487 59.05 24.4113 56.155 23.8663C55.8563 21.4813 54.7912 19.2725 53.065 17.5475C51.4525 15.935 49.4125 14.885 47.1637 14.51L41.4738 13.56L40.275 20.7562C37.6025 19.5912 35.3988 17.5887 33.9637 15.0588L34.5563 14.17C36.8188 10.7763 40.605 8.75 44.685 8.75C47.0963 8.75 49.4313 9.45625 51.4388 10.795L51.8063 11.04L53.1925 8.96L52.825 8.715C50.4062 7.1025 47.5913 6.25 44.685 6.25C39.7675 6.25 35.2038 8.6925 32.4738 12.785L31.6438 14.0313L29.9688 14.8688C26.4538 16.625 24.1825 20.015 23.8237 23.87C20.9387 24.4213 18.75 26.9562 18.75 30C18.75 31.9762 19.6912 33.8262 21.25 34.9975V42.29C21.25 47.8688 24.0963 53.0088 28.75 55.9813V60.2075L13.345 63.0075C6.33625 64.2825 1.25 70.3775 1.25 77.5V78.75H78.75V77.5C78.75 70.3775 73.6637 64.2825 66.655 63.0075ZM28.75 46.685C29.5225 47.4263 30.3525 48.1 31.25 48.6725V54.5412L30.9813 54.3962C30.1725 53.96 29.4412 53.43 28.75 52.8575V46.685ZM33.75 49.9625C34.5612 50.3025 35.3913 50.6012 36.25 50.8063V57.2337L33.75 55.8875V49.9625ZM38.75 51.1763C39.1662 51.2088 39.58 51.25 40 51.25C40.42 51.25 40.8338 51.2088 41.25 51.1763V58.5025C40.4425 58.7887 39.5563 58.7887 38.75 58.5025V51.1763ZM43.75 50.8063C44.6087 50.6012 45.4388 50.3025 46.25 49.9625V55.8875L43.75 57.2337V50.8063ZM48.75 54.5412V48.6725C49.6475 48.1 50.4775 47.4263 51.25 46.685V52.8575C50.5588 53.43 49.8275 53.9612 49.0187 54.3962L48.75 54.5412ZM51 43.2513C48.4175 46.6938 44.305 48.75 40 48.75C35.695 48.75 31.5838 46.6938 29 43.2513C28.99 43.2375 28.9813 43.2225 28.97 43.2088L30.53 39.6975C31.46 37.6025 33.5425 36.25 35.8337 36.25C36.73 36.25 37.6287 36.4625 38.43 36.8625L40 37.6475L41.57 36.8625C42.3713 36.4625 43.2687 36.25 44.1663 36.25C46.4575 36.25 48.54 37.6025 49.47 39.6975L51.03 43.2088C51.02 43.2225 51.0112 43.2363 51 43.2513ZM37.0575 60.5088C37.96 60.9938 38.9775 61.25 40 61.25C41.0225 61.25 42.04 60.9938 42.9425 60.5088L48.75 57.3825V60.625L40 67.1875L31.25 60.625V57.3825L37.0575 60.5088ZM38.0163 68.825L30.7488 75.1837L27.9137 62.9L29.6863 62.5775L38.0163 68.825ZM40 70.4112L46.6725 76.25H33.3275L40 70.4112ZM41.9838 68.825L50.3138 62.5775L52.0863 62.9L49.2513 75.1837L41.9838 68.825ZM56.25 42.29C56.25 45.1625 55.3338 47.88 53.75 50.1475V43.6562C55.3688 41.0775 56.25 38.05 56.25 35V42.29ZM58.75 30C58.75 30.8888 58.4087 31.7175 57.8563 32.3825C57.7863 32.3 57.7287 32.21 57.6512 32.1338L56.25 30.7325V26.48C57.7012 26.9975 58.75 28.3725 58.75 30ZM26.25 24.93C26.25 21.5938 28.1025 18.595 31.0875 17.1037L31.985 16.655C33.7738 19.6263 36.4837 21.94 39.7262 23.2375L42.2275 24.2375L43.5275 16.44L46.7525 16.9775C48.4837 17.265 50.0562 18.075 51.2975 19.3162C52.8787 20.8962 53.75 22.9987 53.75 25.2362V35C53.75 36.9037 53.34 38.7937 52.5775 40.5325L51.755 38.6813C50.4225 35.6862 47.445 33.75 44.1663 33.75C42.8838 33.75 41.5988 34.0525 40.4525 34.6263L40 34.8525L39.5488 34.6263C38.4012 34.0525 37.1175 33.75 35.8337 33.75C32.555 33.75 29.5763 35.6862 28.245 38.6813L27.4225 40.5325C26.66 38.7937 26.25 36.9037 26.25 35V24.93ZM23.75 26.48V30.7325L22.3487 32.1338C22.2712 32.2113 22.2138 32.3 22.1437 32.3825C21.5912 31.7175 21.25 30.8888 21.25 30C21.25 28.3725 22.2987 26.9975 23.75 26.48ZM23.75 42.29V35C23.75 38.0513 24.6313 41.0775 26.25 43.6562V50.1475C24.6663 47.88 23.75 45.1625 23.75 42.29ZM13.7925 65.4663L25.4513 63.3462L28.4287 76.25H3.81375C4.36 70.885 8.3875 66.45 13.7925 65.4663ZM51.5713 76.25L54.5488 63.3462L66.2075 65.4663C71.6113 66.45 75.64 70.885 76.1862 76.25H51.5713Z" fill="#EFE7E2"/>
<path d="M32.5 27.5C33.1887 27.5 33.75 28.06 33.75 28.75H36.25C36.25 26.6825 34.5675 25 32.5 25C30.4325 25 28.75 26.6825 28.75 28.75H31.25C31.25 28.06 31.8112 27.5 32.5 27.5Z" fill="#EFE7E2"/>
<path d="M47.5 27.5C48.1887 27.5 48.75 28.06 48.75 28.75H51.25C51.25 26.6825 49.5675 25 47.5 25C45.4325 25 43.75 26.6825 43.75 28.75H46.25C46.25 28.06 46.8112 27.5 47.5 27.5Z" fill="#EFE7E2"/>
</svg>
