<svg width="22" height="22" viewBox="0 0 22 22" fill="none" xmlns="http://www.w3.org/2000/svg">
<path d="M18.5024 13.7629C17.7073 12.978 16.7147 12.978 15.9247 13.7629C15.322 14.3605 14.7194 14.9581 14.1269 15.5659C13.9648 15.733 13.8281 15.7684 13.6306 15.657C13.2406 15.4443 12.8253 15.2721 12.4506 15.0392C10.7034 13.9402 9.23978 12.5273 7.94331 10.9371C7.30014 10.147 6.72787 9.30128 6.32779 8.34918C6.24676 8.15674 6.26195 8.03013 6.41895 7.87314C7.0216 7.29074 7.60906 6.69315 8.20159 6.09556C9.02708 5.26501 9.02708 4.29265 8.19653 3.45704C7.72554 2.98099 7.25456 2.51507 6.78358 2.03903C6.2974 1.55285 5.81629 1.06161 5.32505 0.5805C4.52995 -0.194342 3.53735 -0.194342 2.74731 0.585565C2.13959 1.18316 1.55719 1.79594 0.939345 2.3834C0.367076 2.92528 0.0784091 3.58871 0.0176372 4.36355C-0.0785851 5.62457 0.230339 6.81469 0.665871 7.97442C1.55719 10.3749 2.91443 12.507 4.56034 14.4618C6.78358 17.1054 9.43729 19.197 12.5417 20.7061C13.9395 21.3848 15.3879 21.9064 16.9629 21.9925C18.0466 22.0533 18.9886 21.7798 19.7432 20.934C20.2598 20.3567 20.8422 19.83 21.3891 19.278C22.1994 18.4576 22.2045 17.465 21.3992 16.6547C20.437 15.6874 19.4697 14.7252 18.5024 13.7629Z" fill="#251D1A"/>
</svg>
