<svg width="16" height="22" viewBox="0 0 16 22" fill="none" xmlns="http://www.w3.org/2000/svg">
<path d="M15.2195 5.47558C15.1412 5.18208 14.9822 4.86935 14.8645 4.59555C13.4568 1.21244 10.3809 0 7.89733 0C4.57258 0 0.910759 2.22939 0.421875 6.82469V7.76353C0.421875 7.80271 0.435378 8.15467 0.454559 8.33073C0.728617 10.5207 2.45669 12.8482 3.74729 15.0382C5.13579 17.3846 6.57656 19.6928 8.00398 21.9999C8.88416 20.4943 9.76116 18.9689 10.6213 17.5022C10.8557 17.0718 11.1278 16.6417 11.3625 16.2308C11.5189 15.9573 11.8177 15.6837 11.9542 15.4292C13.3427 12.8871 15.5775 10.3254 15.5775 7.80266V6.76627C15.5776 6.49278 15.2386 5.53455 15.2195 5.47558ZM7.9582 10.1886C6.98089 10.1886 5.91116 9.69989 5.38315 8.35032C5.30448 8.13549 5.31082 7.70497 5.31082 7.66553V7.05931C5.31082 5.33885 6.77164 4.55648 8.0425 4.55648C9.60705 4.55648 10.8171 5.8082 10.8171 7.37275C10.8171 8.93725 9.52275 10.1886 7.9582 10.1886Z" fill="#251D1A"/>
</svg>
