<svg width="14" height="18" viewBox="0 0 14 18" fill="none" xmlns="http://www.w3.org/2000/svg">
<path d="M12.907 4.48004C12.8429 4.23991 12.7128 3.98404 12.6165 3.76002C11.4647 0.992021 8.94813 2.28882e-05 6.91609 2.28882e-05C4.19584 2.28882e-05 1.1998 1.82407 0.799805 5.58386V6.352C0.799805 6.38406 0.810853 6.67203 0.826546 6.81607C1.05078 8.6079 2.46466 10.5122 3.5206 12.304C4.65664 14.2238 5.83546 16.1123 7.00335 18C7.72349 16.7681 8.44104 15.52 9.14478 14.32C9.33657 13.9679 9.55921 13.6159 9.75122 13.2798C9.87919 13.056 10.1237 12.8322 10.2354 12.6239C11.3714 10.5441 13.1999 8.44811 13.1999 6.38402V5.53607C13.1999 5.3123 12.9226 4.52829 12.907 4.48004ZM6.96589 8.33613C6.16628 8.33613 5.29104 7.9363 4.85903 6.8321C4.79466 6.65633 4.79985 6.30409 4.79985 6.27182V5.77582C4.79985 4.36818 5.99507 3.72805 7.03486 3.72805C8.31495 3.72805 9.30498 4.75219 9.30498 6.03228C9.30498 7.31232 8.24598 8.33613 6.96589 8.33613Z" fill="#3B322D"/>
</svg>
