<svg width="45" height="45" viewBox="0 0 45 45" fill="none" xmlns="http://www.w3.org/2000/svg">
<path d="M38.1865 7.31364C29.35 7.31364 22.1865 14.4771 22.1865 23.3136C31.0231 23.3136 38.1865 16.1502 38.1865 7.31364Z" fill="#FF6E40"/>
<path d="M38.1865 37.3156C29.35 37.3156 22.1865 30.1522 22.1865 21.3156C31.0231 21.3156 38.1865 28.479 38.1865 37.3156Z" fill="#FF6E40"/>
<path d="M22.1865 23.3156C13.35 23.3156 6.18652 16.1522 6.18652 7.3156C15.0231 7.3156 22.1865 14.479 22.1865 23.3156Z" fill="#FF6E40"/>
<path d="M22.1865 21.3136C13.35 21.3136 6.18652 28.4771 6.18652 37.3136C15.0231 37.3136 22.1865 30.1502 22.1865 21.3136Z" fill="#FF6E40"/>
<path d="M43.8128 22.6289C37.5644 16.3806 27.4337 16.3806 21.1852 22.6289C27.4337 28.8773 37.5644 28.8773 43.8128 22.6289Z" fill="#FF6E40"/>
<path d="M43.8128 22.6289C37.5644 16.3806 27.4337 16.3806 21.1852 22.6289C27.4337 28.8773 37.5644 28.8773 43.8128 22.6289Z" fill="#FF6E40"/>
<path d="M23.8141 22.6292C17.5656 16.3809 7.43495 16.3809 1.18652 22.6292C7.43495 28.8776 17.5656 28.8776 23.8141 22.6292Z" fill="#FF6E40"/>
<path d="M22.5003 22.6273C16.2519 16.3789 16.2519 6.24835 22.5003 0C28.7487 6.24835 28.7487 16.3789 22.5003 22.6273Z" fill="#FF6E40"/>
<path d="M22.5003 22.002C16.2519 28.2503 16.2519 38.3809 22.5003 44.6292C28.7487 38.3809 28.7487 28.2503 22.5003 22.002Z" fill="#FF6E40"/>
</svg>
